<svg width="127" height="30" viewBox="0 0 127 30" fill="none" xmlns="http://www.w3.org/2000/svg">
<path d="M19.44 24.24C17.6 27.84 14.28 29.64 10.28 29.64C4.24 29.64 0 25.24 0 18.96C0 12.72 4.12 8.36 10.28 8.36C15.64 8.36 18.44 11.8 19.4 13.84L5.76 22.56C7 25.56 9.24 27.08 11.92 27.08C14.72 27.08 17 25.08 18.68 23.56L19.44 24.24ZM4.8 18.84C4.96 19.92 5.16 20.88 5.44 21.72C9.28 18.68 14.84 15.56 14.4 14.48C13.72 12.64 12.08 9.76 9.08 9.76C5.88 9.76 4.12 13.6 4.8 18.84ZM21.6531 5.2C21.6531 2.84 21.1731 2.44 20.2531 2.44V2.04L27.4531 0.32V0.719999C26.4931 1.4 26.4531 2.92 26.4531 4.6V26.84C26.4531 28.2 26.6531 28.6 27.8531 28.6V29H24.3731C22.3731 29 21.6531 28.08 21.6531 26.28V5.2ZM30.0703 5.2C30.0703 2.84 29.5903 2.44 28.6703 2.44V2.04L35.8703 0.32V0.719999C34.9103 1.4 34.8703 2.92 34.8703 4.6V26.84C34.8703 28.2 35.0703 28.6 36.2703 28.6V29H32.7903C30.7903 29 30.0703 28.08 30.0703 26.28V5.2ZM50.6875 13.2C50.6875 10.84 50.2075 10.44 49.2875 10.44V10.04L56.4875 8.32V8.72C55.5275 9.4 55.4875 10.92 55.4875 12.6V26.16C55.4875 27.96 55.5675 28.6 56.4875 28.6V29H53.9275C51.0075 29 50.6875 27.6 50.6875 26.44V24.8C49.6075 28.32 46.6075 29.64 44.2475 29.64C41.6075 29.64 38.4875 28.28 38.4875 22.16V13.2C38.4875 10.84 38.0075 10.44 37.0875 10.44V10.04L44.2875 8.32V8.72C43.3275 9.4 43.2875 10.92 43.2875 12.6V22.2C43.2875 25.2 44.4875 26.88 46.6075 26.88C49.1275 26.88 50.6875 24.24 50.6875 21.32V13.2ZM57.3016 29V28.6C57.9416 28.6 59.6216 27.08 62.0616 22.96L69.7816 9.8H66.3816C61.6216 9.8 59.4616 13 59.1016 16.4L58.7016 16.36L59.4216 9.28L59.4616 9H76.5816V9.4C75.9416 9.4 74.2216 10.92 71.8216 15.04L64.1016 28.2H67.3816C72.1816 28.2 74.9416 24.44 75.9016 20.52L76.3016 20.64L74.2616 28.8L74.2216 29H57.3016ZM78.8766 13.32C78.8766 10.88 78.3966 10.4 77.6766 10.4V10L84.4766 8.36V8.76C83.6766 9.56 83.6766 11.08 83.6766 12.68V26.84C83.6766 28.2 83.8766 28.6 85.0766 28.6V29H77.4766V28.6C78.6766 28.6 78.8766 28.2 78.8766 26.84V13.32ZM77.9966 3.32L81.2766 -9.53674e-07C81.9166 1.52 83.0366 2.64 84.5566 3.32L81.2766 6.56C79.7566 5.92 78.6766 4.84 77.9966 3.32ZM85.8938 19C85.8938 12.76 90.0938 8.36 96.1338 8.36C102.174 8.36 106.374 12.76 106.374 19C106.374 25.24 102.174 29.64 96.1338 29.64C90.0938 29.64 85.8938 25.24 85.8938 19ZM90.6938 19C91.4138 24.36 94.1738 28.2 97.2938 28.2C100.534 28.2 102.294 24.36 101.614 19C100.854 13.6 98.1338 9.8 94.8938 9.8C91.7738 9.8 89.9738 13.6 90.6938 19ZM108.562 13.32C108.562 10.88 108.082 10.4 107.362 10.4V10L114.162 8.36V8.76C113.362 9.56 113.362 11.08 113.362 12.68V13.2C114.442 9.68 117.442 8.36 119.802 8.36C122.442 8.36 125.562 9.72 125.562 15.84V26.84C125.562 28.2 125.762 28.6 126.962 28.6V29H119.362V28.6C120.562 28.6 120.762 28.2 120.762 26.84V15.76C120.762 12.8 119.602 11.12 117.482 11.12C114.922 11.12 113.362 13.76 113.362 16.68V26.84C113.362 28.2 113.562 28.6 114.762 28.6V29H107.162V28.6C108.362 28.6 108.562 28.2 108.562 26.84V13.32Z" fill="#2E2E33"/>
</svg>
